HIERARCHY
ROOT pelvis
{
  OFFSET 0 100 0
  CHANNELS 6 Xposition Yposition Zposition Zrotation Xrotation Yrotation
  JOINT pelvis_right_femur
  {
    OFFSET -10.78128 -3.44521 -0.5502486
    CHANNELS 3 Zrotation Xrotation Yrotation
    JOINT right_femur_tibia
    {
      OFFSET -0.8047443 -44.0398 -0.1307829
      CHANNELS 3 Zrotation Xrotation Yrotation
      JOINT right_tibia_foot
      {
        OFFSET 3.006224 -47.83518 -5
        CHANNELS 3 Zrotation Xrotation Yrotation
        End Site
        {
          OFFSET 0 -5 15
        }
      }
    }
  }
  JOINT pelvis_left_femur
  {
    OFFSET 10.78128 -3.44521 -0.5502486
    CHANNELS 3 Zrotation Xrotation Yrotation
    JOINT left_femur_tibia
    {
      OFFSET 0.8047443 -44.0398 -0.1307829
      CHANNELS 3 Zrotation Xrotation Yrotation
      JOINT left_tibia_foot
      {
        OFFSET -4.370144 -48.10324 -4.275266
        CHANNELS 3 Zrotation Xrotation Yrotation
        End Site
        {
          OFFSET 0 -5 15
        }
      }
    }
  }
  JOINT pelvis_spine1
  {
    OFFSET 0 6.468898 -3.129235
    CHANNELS 3 Zrotation Xrotation Yrotation
    JOINT spine1
    {
      OFFSET 0 23.15396 4.99043
      CHANNELS 3 Zrotation Xrotation Yrotation
      JOINT spine2
      {
        OFFSET 0 20.79997 -5.064912
        CHANNELS 3 Zrotation Xrotation Yrotation
        JOINT neck
        {
          OFFSET 0 14.38658 9.616178
          CHANNELS 3 Zrotation Xrotation Yrotation
          End Site
          {
            OFFSET 0 20 0
          }
        }
      }
      JOINT right_manubrium
      {
        OFFSET -5.722621 16.35077 3.967754
        CHANNELS 3 Zrotation Xrotation Yrotation
        JOINT right_clavicle
        {
          OFFSET -13.16364 1.694482 -4.693211
          CHANNELS 3 Zrotation Xrotation Yrotation
          JOINT right_humerus
          {
            OFFSET -28.5034 -0.3100689 -2.792744
            CHANNELS 3 Zrotation Xrotation Yrotation
            JOINT right_radius
            {
              OFFSET -25.15693 0.02248979 -1.271978
              CHANNELS 3 Zrotation Xrotation Yrotation
              End Site
              {
                OFFSET -15 0 0
              }
            }
          }
        }
      }
      JOINT left_manubrium
      {
        OFFSET 5.722621 16.35077 3.967754
        CHANNELS 3 Zrotation Xrotation Yrotation
        JOINT left_clavicle
        {
          OFFSET 13.16364 1.694482 -4.693211
          CHANNELS 3 Zrotation Xrotation Yrotation
          JOINT left_humerus
          {
            OFFSET 29.39168 -1.063119 -2.237045
            CHANNELS 3 Zrotation Xrotation Yrotation
            JOINT left_radius
            {
              OFFSET 24.59957 -0.9528479 0.9047498
              CHANNELS 3 Zrotation Xrotation Yrotation
              End Site
              {
                OFFSET 15 -0 -0
              }
            }
          }
        }
      }
    }
  }
}
MOTION
Frames: 17
Frame Time: 0.0416666666667
-1705.039 104.2899 1289.84 -9.780355 5.227185 -116.6553 6.512229 1.037194 -2.048646 -0 10.89453 -0 -12.25124 -2.477169 -2.01145 -1.032182 -4.980744 -5.912058 -0 54.36414 -0 0.7104865 -4.654028 16.47178 0.8168033 -1.627452 5.342937 0.2019388 14.69165 -5.740571 2.107084 24.05624 3.883193 2.307775 -19.23777 6.042124 -3.479755 -21.43327 12.08298 93.97702 16.3752 -18.12049 -0 0 12.20184 -22.56277 12.15039 8.922872 4.224069 -24.56375 -8.646013 -91.22273 15.53333 20.38185 0 0 -12.64375 12.64181 17.48725 -3.318965
-1709.803 104.891 1287.336 -10.30154 5.419263 -117.4944 6.489904 4.984495 -2.099103 -0 9.911253 -0 -12.08041 -2.912897 -1.90803 -0.09120786 -8.835529 -5.130953 -0 50.59806 -0 1.4819 -3.834669 17.00362 0.6291062 -1.808537 5.921559 -0.002332777 15.46232 -5.473611 2.161741 23.60785 3.303614 2.081439 -19.00493 5.557298 -3.659345 -23.19889 12.33827 93.4378 15.62744 -16.47058 -0 0 14.84185 -23.64853 12.82478 10.02671 3.960193 -24.44665 -8.97494 -92.11203 14.31189 22.92486 0 0 -10.73197 12.11148 17.27473 -3.076724
-1714.591 105.1714 1284.943 -10.24232 5.506212 -118.3086 6.592809 8.299256 -1.921949 -0 9.198559 -0 -11.75738 -3.72001 -1.779503 1.077303 -12.50164 -4.216496 -0 44.35689 -0 2.264497 -3.086941 17.15349 0.5593428 -2.15789 6.511249 -0.07669435 16.22421 -5.435483 2.053979 22.7858 2.788834 1.819368 -18.99151 5.002358 -3.556995 -25.30628 12.64212 92.60829 15.17496 -14.85747 -0 0 18.04038 -24.52326 13.68682 11.24681 3.679021 -24.39879 -9.185742 -93.02546 13.01069 26.00292 0 0 -9.193453 11.29034 16.82295 -2.39203
-1719.451 105.0863 1282.688 -9.539983 5.492355 -119.0762 6.796111 10.76598 -1.436684 -0 9.010895 -0 -11.27217 -5.313984 -1.700386 2.42953 -15.72953 -3.22594 -0 35.98646 -0 2.923895 -2.378955 16.90115 0.6442656 -2.634826 7.070785 0.01662252 16.82539 -5.643849 1.774909 21.68052 2.409083 1.512808 -19.15046 4.463031 -3.113221 -27.55432 12.96959 91.44512 15.17628 -13.36481 -0 0 21.52869 -24.99117 14.72682 12.44251 3.368073 -24.3817 -9.184594 -93.91218 11.89143 29.41094 0 0 -8.156984 10.16293 16.16581 -1.140261
-1724.422 104.6305 1280.572 -8.281682 5.408801 -119.7802 7.028997 12.30772 -0.6845307 -0 9.488109 -0 -10.68939 -7.900612 -1.691433 3.80491 -18.22064 -2.297264 -0 26.38839 -0 3.318578 -1.700575 16.35403 0.8815036 -3.160931 7.532155 0.2694411 17.08962 -6.042233 1.356252 20.50208 2.245556 1.194077 -19.35886 4.048989 -2.366183 -29.60716 13.25796 89.98539 15.71556 -12.06164 -0 0 24.82797 -24.94938 15.81419 13.44627 3.056387 -24.33651 -8.903209 -94.70646 11.1876 32.72747 0 0 -7.642804 8.859247 15.39463 0.5865676
-1729.534 103.8506 1278.562 -6.782362 5.312869 -120.4187 7.156045 13.1379 0.1240413 -0 10.59868 -0 -10.17304 -11.18425 -1.696838 4.899782 -19.71188 -1.703975 -0 17.11545 -0 3.308079 -1.079978 15.78159 1.194558 -3.619611 7.805914 0.5946081 16.86829 -6.450903 0.8992091 19.56979 2.358798 0.9564448 -19.431 3.872176 -1.496299 -31.02641 13.38861 88.38651 16.71532 -10.94601 -0 0 27.3301 -24.47189 16.65272 14.12167 2.821815 -24.14723 -8.333921 -95.35921 11.00709 35.37054 0 0 -7.353193 7.640283 14.68925 2.416343
-1734.824 102.8524 1276.581 -5.535753 5.251413 -121.0154 6.981944 13.74826 0.6676199 -0 12.20446 -0 -9.940321 -14.22317 -1.603363 5.344816 -20.10494 -1.800728 -0 10.01921 -0 2.798566 -0.5982331 15.53003 1.426771 -3.88765 7.821677 0.8352447 16.12962 -6.596814 0.559779 19.19834 2.746043 0.9382307 -19.19097 3.990897 -0.7641101 -31.42411 13.22879 86.89353 17.93299 -9.929538 -0 0 28.53808 -23.82721 16.8638 14.4399 2.761746 -23.65407 -7.55837 -95.85688 11.24456 36.81852 0 0 -6.659138 6.791634 14.2784 3.799638
-1740.337 101.7935 1274.538 -4.998885 5.22786 -121.6029 6.335144 14.63294 0.6980441 -0 14.26916 -0 -10.15244 -15.75443 -1.297603 4.913627 -19.53201 -2.808301 -0 6.386754 -0 1.832775 -0.3648294 15.82074 1.40928 -3.891814 7.578722 0.8404803 15.02799 -6.260475 0.4710062 19.52281 3.3165 1.247844 -18.57374 4.351584 -0.3380108 -30.69215 12.74901 85.73702 19.07414 -8.904801 -0 0 28.34002 -23.368 16.21529 14.5056 2.923202 -22.75848 -6.751471 -96.21353 11.61144 36.90242 0 0 -4.973992 6.488473 14.30687 4.288484
-1746.097 100.852 1272.365 -5.362684 5.230074 -122.1828 5.197644 15.96242 0.2031085 -0 16.98356 -0 -10.83514 -14.9094 -0.7207074 3.689884 -18.26393 -4.630344 -0 6.211898 -0 0.6249756 -0.4493294 16.61785 1.074785 -3.643805 7.144705 0.5494195 13.85649 -5.421179 0.6645903 20.42249 3.922775 1.881364 -17.66645 4.806281 -0.1958936 -29.10247 12.08322 85.04942 19.91523 -7.838579 -0 0 27.06507 -23.34191 14.79384 14.48143 3.260825 -21.52772 -6.127164 -96.4554 11.80732 35.90147 0 0 -2.204505 6.740706 14.73666 3.773492
-1752.079 100.1835 1270.041 -6.514867 5.281359 -122.7122 3.730679 17.54266 -0.6287108 -0 20.60089 -0 -11.89923 -11.68508 0.1134966 2.002143 -16.55256 -6.928049 -0 8.374474 -0 -0.5511278 -0.8381679 17.71669 0.5027204 -3.215048 6.594218 0.0009186521 12.88605 -4.239812 1.073882 21.63376 4.439106 2.722176 -16.64485 5.215733 -0.2207179 -27.13262 11.42805 84.85456 20.33673 -6.782191 -0 0 25.24438 -23.79039 12.92052 14.48473 3.680096 -20.15706 -5.835027 -96.61187 11.6908 34.31166 -0 0 1.243655 7.440696 15.40812 2.457753
-1758.202 99.88872 1267.59 -8.18174 5.432629 -123.1299 2.161638 19.02702 -1.580215 -0 25.19591 -0 -13.21872 -6.755472 1.145175 0.2126334 -14.55796 -9.343157 -0 11.48484 -0 -1.50651 -1.462966 18.91724 -0.1509211 -2.681996 5.961025 -0.7184376 12.24417 -2.926012 1.596143 22.92107 4.817527 3.62075 -15.67288 5.526011 -0.3234648 -25.18706 10.91644 85.09761 20.31952 -5.810432 -0 0 23.31027 -24.61175 10.93052 14.55728 4.106857 -18.84345 -5.901853 -96.6952 11.30615 32.52403 -0 0 4.810017 8.451011 16.16736 0.6487209
-1764.353 100.0067 1265.063 -10.06984 5.706421 -123.3868 0.6633377 20.08439 -2.514333 -0 30.63765 -0 -14.68698 -0.9711673 2.312486 -1.431236 -12.37004 -11.62786 -0 14.50986 -0 -2.159633 -2.251903 20.09006 -0.75288 -2.097098 5.247243 -1.521021 11.92603 -1.650442 2.134959 24.14544 5.087951 4.469622 -14.85445 5.753528 -0.4481454 -23.46916 10.59658 85.67008 19.97115 -4.988794 -0 0 21.46629 -25.67418 9.056062 14.69499 4.509851 -17.72703 -6.261714 -96.66986 10.7984 30.69033 -0 0 7.993664 9.668089 16.91117 -1.39551
-1770.406 100.5271 1262.526 -11.90699 6.054146 -123.4629 -0.6866217 20.39798 -3.360627 -0 36.71332 -0 -16.22117 4.943368 3.56894 -2.821135 -10.05279 -13.64032 -0 16.84751 -0 -2.465683 -3.156079 21.14187 -1.238008 -1.494977 4.459295 -2.331141 11.87191 -0.5474746 2.600173 25.22879 5.332416 5.224414 -14.25082 5.933583 -0.5140897 -22.02558 10.47545 86.41481 19.55845 -4.396979 -0 0 19.7305 -26.86062 7.451266 14.87568 4.885324 -16.92137 -6.810935 -96.43675 10.33167 28.77912 -0 0 10.3171 11.0356 17.55203 -3.483332
-1776.229 101.4013 1260.062 -13.39802 6.344819 -123.3716 -1.876633 19.55868 -4.042617 -0 43.19621 -0 -17.70911 10.37421 4.846439 -3.944521 -7.668977 -15.2911 -0 18.1075 -0 -2.347867 -4.160333 21.96776 -1.599656 -0.9149551 3.639158 -3.070055 12.02561 0.237852 2.890856 26.08347 5.661998 5.881397 -13.9305 6.092306 -0.3735552 -20.84693 10.5568 87.11783 19.51372 -4.175585 -0 0 18.05096 -28.0286 6.272772 15.05837 5.238628 -16.56383 -7.427481 -95.84476 10.06222 26.69455 -0 0 11.20519 12.51496 17.97517 -5.426766
-1781.668 102.5404 1257.775 -14.1334 6.365381 -123.163 -2.887921 16.93298 -4.395549 -0 49.71708 -0 -18.88254 14.59374 5.947393 -4.830983 -5.281111 -16.50508 -0 17.89449 -0 -1.667858 -5.30626 22.43175 -1.861385 -0.430967 2.893407 -3.617992 12.34618 0.4953773 2.887583 26.54286 6.193663 6.434795 -14.02931 6.252302 0.1999048 -19.9492 10.85124 87.50463 20.42266 -4.570869 -0 0 16.43512 -28.90041 5.756172 15.14761 5.57853 -16.83924 -7.940702 -94.73379 10.15592 24.39348 -0 0 9.914133 14.02892 18.024 -6.957415
-1786.542 103.7995 1255.795 -13.50283 5.829388 -122.9211 -3.565245 11.61368 -4.084851 -0 55.31875 -0 -19.12731 16.43768 6.378957 -5.514026 -2.913902 -17.24953 -0 15.79426 -0 -0.2522278 -6.754699 22.41833 -2.056908 -0.186225 2.426064 -3.754193 12.75629 -0.07798378 2.489921 26.31867 6.991769 6.81979 -14.80954 6.469345 1.469685 -19.40604 11.34856 87.29272 22.95484 -5.942125 -0 0 15.08618 -28.87456 6.230655 14.90124 5.932808 -17.92175 -8.052455 -93.05566 10.83666 22.0115 -0 0 5.676699 15.38786 17.54322 -7.670998
-1790.651 104.962 1254.242 -10.79962 4.470635 -122.7197 -3.395404 2.782306 -2.539791 -0 57.69852 -0 -17.48136 14.08852 5.355894 -6.0106 -0.3998743 -17.70804 -0 11.83672 -0 1.960748 -8.881241 22.07292 -2.221137 -0.3987869 2.520598 -3.115942 12.98397 -1.767975 1.765886 25.10278 7.908851 6.836588 -16.65912 6.90198 3.519827 -19.28202 11.92221 86.41414 27.47564 -8.626756 -0 0 14.4858 -26.79337 7.880793 13.75581 6.385685 -19.69616 -7.253046 -91.18115 12.46648 19.99585 0 0 -1.536813 16.22502 16.56529 -7.122901
